<svg id="Capa_1" enable-background="new 0 0 512 512" height="512" viewBox="0 0 512 512" width="512" xmlns="http://www.w3.org/2000/svg"><g><g><path d="m502 226h-216v-216c115.98 0 216 100.02 216 216z" fill="#b3f1ff"/><g fill="#ff7d97"><path d="m226 286h216c0 20.66-3.17 40.82-9.05 60h-181.48z"/><path d="m251.47 346h181.48c-6.57 21.45-16.52 41.67-29.19 60h-126.83z"/><path d="m276.93 406h126.83c-23.39 33.85-56.03 61.24-93.73 77.96z"/></g><path d="m310.03 483.96v.01c-26.05 11.56-54.53 18.03-84.03 18.03-115.98 0-216-100.02-216-216s100.02-216 216-216v216c.165.388 80.123 188.755 84.03 197.96z" fill="#fff2a0"/></g><g><path d="m512 226c0-121.265-104.221-226-226-226-5.522 0-10 4.478-10 10v216c0 5.522 4.478 10 10 10h216c5.522 0 10-4.478 10-10zm-216-10v-195.733c102.195 5.444 190.289 93.538 195.733 195.733z"/><circle cx="75" cy="439" r="10"/><path d="m52.419 412.225c4.578-3.089 5.786-9.305 2.697-13.883-22.973-34.053-35.116-72.901-35.116-112.342 0-106.39 90.482-200.112 196-205.733v205.694c-.006 1.345.257 2.692.808 3.979.26.612 79.988 188.441 80.08 188.657-22.908 8.891-46.708 13.403-70.888 13.403-38.521 0-76.592-11.627-110.099-33.623-4.619-3.033-10.817-1.745-13.848 2.871-3.031 4.617-1.745 10.817 2.871 13.848 36.778 24.142 78.644 36.904 121.076 36.904 121.249 0 226-104.291 226-226 0-5.522-4.478-10-10-10h-206v-206c0-5.522-4.478-10-10-10-120.903 0-226 103.904-226 226 0 43.442 13.325 86.157 38.536 123.527 3.089 4.578 9.305 5.786 13.883 2.698zm346.012-16.225h-114.874l-16.979-40.01h152.357c-5.314 13.924-12.177 27.319-20.504 40.01zm-83.264 74.468-23.121-54.478h91.567c-18.949 22.76-42.231 41.304-68.446 54.478zm110.231-134.468h-167.31l-16.979-40.01h190.631c-.704 13.465-2.836 26.857-6.342 40.01z"/></g></g></svg>