<svg height="512pt" viewBox="0 0 512 512" width="512pt" xmlns="http://www.w3.org/2000/svg"><path d="m503.464844 59.734375v426.664063c-.027344 9.414062-7.652344 17.039062-17.066406 17.066406h-460.796876c-9.414062-.027344-17.039062-7.652344-17.066406-17.066406v-426.664063zm0 0" fill="#cfd8dc"/><path d="m477.867188 59.734375v426.664063c-.027344 9.414062-7.652344 17.039062-17.066407 17.066406h-435.199219c-9.414062-.027344-17.039062-7.652344-17.066406-17.066406v-426.664063zm0 0" fill="#f5f5f5"/><path d="m8.535156 76.800781h204.796875v341.332031h-204.796875zm0 0" fill="#cfd8dc"/><path d="m8.535156 76.800781h179.199219v341.332031h-179.199219zm0 0" fill="#f5f5f5"/><path d="m503.464844 418.132812v68.265626c-.027344 9.414062-7.652344 17.039062-17.066406 17.066406h-460.796876c-9.414062-.027344-17.039062-7.652344-17.066406-17.066406v-68.265626zm0 0" fill="#00838f"/><path d="m213.332031 273.066406h290.132813v145.066406h-290.132813zm0 0" fill="#37474f"/><path d="m213.332031 273.066406h264.535157v145.066406h-264.535157zm0 0" fill="#607d8b"/><path d="m503.464844 25.601562v51.199219h-494.929688v-51.199219c.027344-9.414062 7.652344-17.039062 17.066406-17.066406h460.796876c9.414062.027344 17.039062 7.652344 17.066406 17.066406zm0 0" fill="#00838f"/><path d="m477.867188 418.132812v68.265626c-.027344 9.414062-7.652344 17.039062-17.066407 17.066406h-435.199219c-9.414062-.027344-17.039062-7.652344-17.066406-17.066406v-68.265626zm0 0" fill="#00bcd4"/><path d="m477.867188 25.601562v51.199219h-469.332032v-51.199219c.027344-9.414062 7.652344-17.039062 17.066406-17.066406h435.199219c9.414063.027344 17.039063 7.652344 17.066407 17.066406zm0 0" fill="#00bcd4"/><path d="m298.667969 204.800781v68.265625h-51.203125v-68.265625c.015625-4.707031 3.828125-8.519531 8.535156-8.535156h34.132812c4.707032.015625 8.519532 3.828125 8.535157 8.535156zm0 0" fill="#bb193b"/><path d="m273.066406 204.800781v68.265625h-25.601562v-68.265625c.015625-4.707031 3.828125-8.519531 8.535156-8.535156h8.535156c4.707032.015625 8.519532 3.828125 8.53125 8.535156zm0 0" fill="#ef314c"/><path d="m384 110.933594v162.132812h-51.199219v-162.132812c.011719-4.707032 3.824219-8.519532 8.53125-8.535156h34.132813c4.710937.015624 8.523437 3.828124 8.535156 8.535156zm0 0" fill="#fec108"/><path d="m358.398438 110.933594v162.132812h-25.597657v-162.132812c.011719-4.707032 3.824219-8.519532 8.53125-8.535156h8.535157c4.707031.015624 8.519531 3.828124 8.53125 8.535156zm0 0" fill="#ffdc00"/><path d="m469.332031 153.601562v119.464844h-51.199219v-119.464844c.015626-4.707031 3.828126-8.519531 8.535157-8.535156h34.132812c4.707031.015625 8.519531 3.828125 8.53125 8.535156zm0 0" fill="#0377bc"/><path d="m443.734375 153.601562v119.464844h-25.601563v-119.464844c.015626-4.707031 3.828126-8.519531 8.535157-8.535156h8.53125c4.707031.015625 8.519531 3.828125 8.535156 8.535156zm0 0" fill="#02a9f4"/><path d="m486.398438 512h-460.796876c-14.132812-.015625-25.585937-11.46875-25.601562-25.601562v-460.796876c.015625-14.132812 11.46875-25.585937 25.601562-25.601562h460.796876c14.132812.015625 25.585937 11.46875 25.601562 25.601562v460.796876c-.015625 14.132812-11.46875 25.585937-25.601562 25.601562zm-460.796876-494.933594c-4.710937.003906-8.53125 3.824219-8.535156 8.535156v460.796876c.003906 4.710937 3.824219 8.53125 8.535156 8.535156h460.796876c4.710937-.003906 8.53125-3.824219 8.535156-8.535156v-460.796876c-.003906-4.710937-3.824219-8.53125-8.535156-8.535156zm0 0"/><path d="m51.199219 42.667969c0 4.710937-3.820313 8.53125-8.53125 8.53125-4.714844 0-8.535157-3.820313-8.535157-8.53125 0-4.714844 3.820313-8.535157 8.535157-8.535157 4.710937 0 8.53125 3.820313 8.53125 8.535157zm0 0"/><path d="m85.332031 42.667969c0 4.710937-3.820312 8.53125-8.53125 8.53125-4.714843 0-8.535156-3.820313-8.535156-8.53125 0-4.714844 3.820313-8.535157 8.535156-8.535157 4.710938 0 8.53125 3.820313 8.53125 8.535157zm0 0"/><path d="m51.199219 110.933594c0 4.710937-3.820313 8.53125-8.53125 8.53125-4.714844 0-8.535157-3.820313-8.535157-8.53125 0-4.714844 3.820313-8.535156 8.535157-8.535156 4.710937 0 8.53125 3.820312 8.53125 8.535156zm0 0"/><path d="m119.464844 42.667969c0 4.710937-3.820313 8.53125-8.53125 8.53125-4.714844 0-8.535156-3.820313-8.535156-8.53125 0-4.714844 3.820312-8.535157 8.535156-8.535157 4.710937 0 8.53125 3.820313 8.53125 8.535157zm0 0"/><path d="m503.464844 85.332031h-494.929688c-4.714844 0-8.535156-3.820312-8.535156-8.53125v-51.199219c.015625-14.132812 11.46875-25.585937 25.601562-25.601562h460.796876c14.132812.015625 25.585937 11.46875 25.601562 25.601562v51.199219c0 2.261719-.898438 4.433594-2.5 6.03125-1.601562 1.601563-3.769531 2.5-6.035156 2.5zm-486.398438-17.066406h477.867188v-42.664063c-.003906-4.710937-3.824219-8.53125-8.535156-8.535156h-460.796876c-4.710937.003906-8.53125 3.824219-8.535156 8.535156zm0 0"/><path d="m76.800781 426.667969c-4.714843 0-8.535156-3.820313-8.535156-8.535157v-341.332031c0-4.714843 3.820313-8.535156 8.535156-8.535156 4.710938 0 8.53125 3.820313 8.53125 8.535156v341.332031c0 4.714844-3.820312 8.535157-8.53125 8.535157zm0 0"/><path d="m119.464844 110.933594c0 4.710937-3.820313 8.53125-8.53125 8.53125-4.714844 0-8.535156-3.820313-8.535156-8.53125 0-4.714844 3.820312-8.535156 8.535156-8.535156 4.710937 0 8.53125 3.820312 8.53125 8.535156zm0 0"/><path d="m145.066406 426.667969c-4.710937 0-8.53125-3.820313-8.53125-8.535157v-341.332031c0-4.714843 3.820313-8.535156 8.53125-8.535156 4.714844 0 8.535156 3.820313 8.535156 8.535156v341.332031c0 4.714844-3.820312 8.535157-8.535156 8.535157zm0 0"/><path d="m213.332031 153.601562h-204.796875c-4.714844 0-8.535156-3.820312-8.535156-8.535156 0-4.710937 3.820312-8.53125 8.535156-8.53125h204.796875c4.714844 0 8.535157 3.820313 8.535157 8.53125 0 4.714844-3.820313 8.535156-8.535157 8.535156zm0 0"/><path d="m119.464844 179.199219c0 4.714843-3.820313 8.535156-8.53125 8.535156-4.714844 0-8.535156-3.820313-8.535156-8.535156 0-4.710938 3.820312-8.53125 8.535156-8.53125 4.710937 0 8.53125 3.820312 8.53125 8.53125zm0 0"/><path d="m213.332031 221.867188h-204.796875c-4.714844 0-8.535156-3.820313-8.535156-8.535157 0-4.710937 3.820312-8.53125 8.535156-8.53125h204.796875c4.714844 0 8.535157 3.820313 8.535157 8.53125 0 4.714844-3.820313 8.535157-8.535157 8.535157zm0 0"/><path d="m187.734375 247.464844c0 4.714844-3.820313 8.535156-8.535156 8.535156-4.710938 0-8.53125-3.820312-8.53125-8.535156 0-4.710938 3.820312-8.53125 8.53125-8.53125 4.714843 0 8.535156 3.820312 8.535156 8.53125zm0 0"/><path d="m59.734375 384c0 4.710938-3.820313 8.535156-8.535156 8.535156-4.710938 0-8.53125-3.824218-8.53125-8.535156s3.820312-8.535156 8.53125-8.535156c4.714843 0 8.535156 3.824218 8.535156 8.535156zm0 0"/><path d="m213.332031 290.132812h-204.796875c-4.714844 0-8.535156-3.820312-8.535156-8.53125 0-4.714843 3.820312-8.535156 8.535156-8.535156h204.796875c4.714844 0 8.535157 3.820313 8.535157 8.535156 0 4.710938-3.820313 8.53125-8.535157 8.53125zm0 0"/><path d="m119.464844 315.734375c0 4.710937-3.820313 8.53125-8.53125 8.53125-4.714844 0-8.535156-3.820313-8.535156-8.53125 0-4.714844 3.820312-8.535156 8.535156-8.535156 4.710937 0 8.53125 3.820312 8.53125 8.535156zm0 0"/><path d="m213.332031 358.398438h-204.796875c-4.714844 0-8.535156-3.820313-8.535156-8.53125 0-4.714844 3.820312-8.535157 8.535156-8.535157h204.796875c4.714844 0 8.535157 3.820313 8.535157 8.535157 0 4.710937-3.820313 8.53125-8.535157 8.53125zm0 0"/><path d="m187.734375 315.734375c0 4.710937-3.820313 8.53125-8.535156 8.53125-4.710938 0-8.53125-3.820313-8.53125-8.53125 0-4.714844 3.820312-8.535156 8.53125-8.535156 4.714843 0 8.535156 3.820312 8.535156 8.535156zm0 0"/><path d="m213.332031 426.667969h-204.796875c-4.714844 0-8.535156-3.820313-8.535156-8.535157v-341.332031c0-4.714843 3.820312-8.535156 8.535156-8.535156h204.796875c4.714844 0 8.535157 3.820313 8.535157 8.535156v341.332031c0 4.714844-3.820313 8.535157-8.535157 8.535157zm-196.265625-17.066407h187.734375v-324.269531h-187.734375zm0 0"/><path d="m486.398438 512h-460.796876c-14.132812-.015625-25.585937-11.46875-25.601562-25.601562v-68.265626c0-4.710937 3.820312-8.53125 8.535156-8.53125h494.929688c4.714844 0 8.535156 3.820313 8.535156 8.53125v68.265626c-.015625 14.132812-11.46875 25.585937-25.601562 25.601562zm-469.332032-85.332031v59.730469c.003906 4.710937 3.824219 8.53125 8.535156 8.535156h460.796876c4.710937-.003906 8.53125-3.824219 8.535156-8.535156v-59.730469zm0 0"/><path d="m358.875 477.867188h-171.617188c-6.625-.007813-13.15625-1.550782-19.082031-4.503907l-19.710937-9.859375c-3.558594-1.773437-7.480469-2.699218-11.457032-2.703125h-102.875c-4.710937 0-8.53125-3.820312-8.53125-8.535156 0-4.710937 3.820313-8.53125 8.53125-8.53125h102.875c6.625.007813 13.15625 1.546875 19.082032 4.503906l19.714844 9.859375c3.558593 1.773438 7.476562 2.699219 11.453124 2.703125h171.617188c3.976562-.003906 7.894531-.929687 11.449219-2.703125l19.714843-9.859375c5.925782-2.957031 12.460938-4.496093 19.085938-4.503906h60.207031c4.714844 0 8.535157 3.820313 8.535157 8.53125 0 4.714844-3.820313 8.535156-8.535157 8.535156h-60.207031c-3.976562.003907-7.894531.929688-11.449219 2.703125l-19.714843 9.859375c-5.925782 2.953125-12.460938 4.496094-19.085938 4.503907zm0 0"/><path d="m298.667969 290.132812h-51.203125c-4.710938 0-8.53125-3.820312-8.53125-8.53125v-68.269531c.011718-9.417969 7.644531-17.054687 17.066406-17.066406h34.132812c9.421876.011719 17.054688 7.648437 17.066407 17.066406v68.269531c0 4.710938-3.820313 8.53125-8.53125 8.53125zm-42.667969-17.066406h34.132812v-59.734375h-34.132812zm0 0"/><path d="m384 290.132812h-51.199219c-4.714843 0-8.535156-3.820312-8.535156-8.53125v-162.136718c.011719-9.417969 7.648437-17.054688 17.066406-17.066406h34.132813c9.421875.011718 17.058594 7.648437 17.070312 17.066406v162.136718c0 4.710938-3.824218 8.53125-8.535156 8.53125zm-42.667969-17.066406h34.132813v-153.601562h-34.132813zm0 0"/><path d="m469.332031 290.132812h-51.199219c-4.710937 0-8.53125-3.820312-8.53125-8.53125v-119.46875c.007813-9.421874 7.644532-17.054687 17.066407-17.066406h34.132812c9.421875.011719 17.054688 7.644532 17.066407 17.066406v119.46875c0 4.710938-3.820313 8.53125-8.535157 8.53125zm-42.664062-17.066406h34.132812v-110.933594h-34.132812zm0 0"/><path d="m503.464844 426.667969h-290.132813c-4.710937 0-8.53125-3.820313-8.53125-8.535157v-136.53125c0-4.714843 3.820313-8.535156 8.53125-8.535156h290.132813c4.714844 0 8.535156 3.820313 8.535156 8.535156v136.53125c0 4.714844-3.820312 8.535157-8.535156 8.535157zm-281.597656-17.066407h273.066406v-119.46875h-273.066406zm0 0"/><path d="m213.332031 426.667969c-4.710937 0-8.53125-3.820313-8.53125-8.535157 0-4.710937 3.820313-8.53125 8.53125-8.53125 61.867188 0 92.535157-29.851562 124.992188-61.457031 36.152343-35.191406 77.125-75.078125 165.140625-75.078125 4.714844 0 8.535156 3.820313 8.535156 8.535156 0 4.710938-3.820312 8.53125-8.535156 8.53125-81.082032 0-117.757813 35.710938-153.230469 70.242188-33.476563 32.59375-68.101563 66.292969-136.902344 66.292969zm0 0"/><path d="m503.464844 392.535156c-80.722656 0-131.023438-23.480468-175.40625-44.195312-37.492188-17.492188-69.867188-32.605469-114.726563-32.605469-4.710937 0-8.53125-3.820313-8.53125-8.535156 0-4.710938 3.820313-8.53125 8.53125-8.53125 48.652344 0 84.25 16.617187 121.941407 34.207031 44.867187 20.941406 91.25 42.589844 168.191406 42.589844 4.714844 0 8.535156 3.824218 8.535156 8.535156s-3.820312 8.535156-8.535156 8.535156zm0 0"/></svg>