<svg height="512" viewBox="0 0 512 512" width="512" xmlns="http://www.w3.org/2000/svg"><g id="FilledOutline"><path d="m88 32h336a24 24 0 0 1 24 24v400a24 24 0 0 1 -24 24h-48a24 24 0 0 1 -24-24v-40h-288v-360a24 24 0 0 1 24-24z" fill="#ccdce5"/><path d="m88 32h336a24 24 0 0 1 24 24v40a0 0 0 0 1 0 0h-384a0 0 0 0 1 0 0v-40a24 24 0 0 1 24-24z" fill="#0093ba"/><path d="m160 32h96v64h-96z" fill="#047fa7"/><path d="m352 32h72a24 24 0 0 1 24 24v40a0 0 0 0 1 0 0h-96a0 0 0 0 1 0 0v-64a0 0 0 0 1 0 0z" fill="#047fa7"/><g fill="#abbac2"><path d="m64 96h96v64h-96z"/><path d="m256 96h96v64h-96z"/><path d="m352 160h96v64h-96z"/><path d="m256 224h96v64h-96z"/><path d="m160 160h96v64h-96z"/><path d="m64 224h96v64h-96z"/><path d="m352 288h96v64h-96z"/><path d="m256 352h96v64h-96z"/><path d="m352 416h96a0 0 0 0 1 0 0v40a24 24 0 0 1 -24 24h-48a24 24 0 0 1 -24-24v-40a0 0 0 0 1 0 0z"/><path d="m160 288h96v64h-96z"/></g><path d="m248 480h-192a24 24 0 0 1 -24-24v-88a24 24 0 0 1 24-24h40l16-16 16 16h120a24 24 0 0 1 24 24v88a24 24 0 0 1 -24 24z" fill="#88bf40"/><path d="m456 456v-400a32.036 32.036 0 0 0 -32-32h-336a32.036 32.036 0 0 0 -32 32v264h16v-24h80v24h16v-24h80v24h16v-24h80v48h-48v16h48v48h-48v16h48v32a32.036 32.036 0 0 0 32 32h48a32.036 32.036 0 0 0 32-32zm-112-304h-80v-48h80zm16-48h80v48h-80zm-96-16v-48h80v48zm-16 0h-80v-48h80zm0 16v48h-80v-48zm-96 48h-80v-48h80zm0 16v48h-80v-48zm16 0h80v48h-80zm96 0h80v48h-80zm96 0h80v48h-80zm80 64v48h-80v-48zm0-176v32h-80v-48h64a16.019 16.019 0 0 1 16 16zm-352-16h64v48h-80v-32a16.019 16.019 0 0 1 16-16zm-16 240v-48h80v48zm96 0v-48h80v48zm96 0v-48h80v48zm96 16h80v48h-80zm80 64v48h-80v-48zm-80 96v-32h80v32a16.019 16.019 0 0 1 -16 16h-48a16.019 16.019 0 0 1 -16-16z"/><path d="m88 56h16v16h-16z"/><path d="m120 56h16v16h-16z"/><path d="m184 56h48v16h-48z"/><path d="m280 56h48v16h-48z"/><path d="m376 56h48v16h-48z"/><path d="m280 456v-88a32.036 32.036 0 0 0 -32-32h-116.687l-13.656-13.657a8 8 0 0 0 -11.314 0l-13.656 13.657h-36.687a32.036 32.036 0 0 0 -32 32v88a32.036 32.036 0 0 0 32 32h192a32.036 32.036 0 0 0 32-32zm-240 0v-88a16.019 16.019 0 0 1 16-16h40a8 8 0 0 0 5.657-2.343l10.343-10.344 10.343 10.344a8 8 0 0 0 5.657 2.343h120a16.019 16.019 0 0 1 16 16v88a16.019 16.019 0 0 1 -16 16h-192a16.019 16.019 0 0 1 -16-16z"/><path d="m80 376h16v16h-16z"/><path d="m112 376h128v16h-128z"/><path d="m64 408h176v16h-176z"/><path d="m64 440h144v16h-144z"/></g></svg>